<svg width="16" height="16" viewBox="0 0 16 16" fill="none" xmlns="http://www.w3.org/2000/svg">
<path d="M8 5.17065C7.24961 5.17065 6.52995 5.46874 5.99934 5.99934C5.46874 6.52995 5.17065 7.24961 5.17065 8C5.17065 8.75039 5.46874 9.47005 5.99934 10.0007C6.52995 10.5313 7.24961 10.8294 8 10.8294C8.75039 10.8294 9.47005 10.5313 10.0007 10.0007C10.5313 9.47005 10.8294 8.75039 10.8294 8C10.8294 7.24961 10.5313 6.52995 10.0007 5.99934C9.47005 5.46874 8.75039 5.17065 8 5.17065ZM8 12.244C6.87441 12.244 5.79493 11.7969 4.99902 11.001C4.20311 10.2051 3.75597 9.12559 3.75597 8C3.75597 6.87441 4.20311 5.79493 4.99902 4.99902C5.79493 4.20311 6.87441 3.75597 8 3.75597C9.12559 3.75597 10.2051 4.20311 11.001 4.99902C11.7969 5.79493 12.244 6.87441 12.244 8C12.244 9.12559 11.7969 10.2051 11.001 11.001C10.2051 11.7969 9.12559 12.244 8 12.244ZM13.6587 5.65871V2.34129H10.3413L8 0L5.65871 2.34129H2.34129V5.65871L0 8L2.34129 10.3413V13.6587H5.65871L8 16L10.3413 13.6587H13.6587V10.3413L16 8L13.6587 5.65871Z" fill="black"/>
</svg>
